<?xml version="1.0" encoding="utf-8"?>
<svg version="1.1" id="all-layer" xmlns="http://www.w3.org/2000/svg" xmlns:xlink="http://www.w3.org/1999/xlink" x="0px" y="0px" width="800px" height="280px" viewBox="0 0 800 280" enable-background="new 0 0 800 280" xml:space="preserve">
<path id="mobile" fill-rule="evenodd" clip-rule="evenodd" fill="#F8B219" d="M166.981,18c-45.661,0-91.322,0-136.982,0  c-4.485,0.848-7.151,3.514-7.999,7.999c0,74.323,0,148.648,0,222.972c2.945,6.114,7.774,8.2,14.531,8.107  c22.129-0.303,44.264-0.137,66.397-0.15c0.371-0.308,0.945-0.384,1.081-0.956c8.801-12.164,17.603-24.328,26.769-36.997  c-29.13,0-57.436,0.006-85.741-0.004c-6.854-0.003-8.036-1.211-8.037-8.199c-0.005-56.289-0.007-112.579,0.002-168.868  c0.001-6.621,1.267-7.897,7.834-7.9c36.138-0.011,72.277-0.012,108.416,0.001c6.466,0.003,7.721,1.318,7.725,8.009  c0.012,18.819,0.716,37.674-0.248,56.444c-0.636,12.383,8.49,18.386,13.703,27.062c0.547-31.012,0.397-61.799,0.663-92.583  C175.155,26.069,173.248,21.05,166.981,18z M99.018,226c6.083,0.033,11.11,5.199,10.952,11.254  c-0.154,5.862-5.145,10.715-11.006,10.7c-6.066-0.016-11.087-5.177-10.949-11.257C88.148,230.856,93.176,225.968,99.018,226z M161.146,183.247c0-6.109,0-11.215,0-16.281  C167.659,172.224,167.767,174.614,161.146,183.247z M149.931,255.94c8.09-11.08,16.181-22.158,24.984-34.213  c0,9.272,0.267,17.356-0.091,25.412c-0.25,5.612-4.917,9.586-10.764,9.784c-4.654,0.158-9.318-0.002-13.977-0.021  c-0.374-0.16-0.521-0.356-0.442-0.588C149.726,256.065,149.822,255.94,149.931,255.94z M138.718,256.777c-8.209,0.041-16.418,0.082-24.628,0.123  c-0.357-0.127-0.532-0.32-0.525-0.582c0.007-0.295,0.057-0.442,0.147-0.442c19.241-25.947,38.436-51.928,57.789-77.791  c2.146-2.869,2.165-4.701,0.036-7.65c-15.985-22.138-31.759-44.428-47.575-66.688c-1.032-1.454-2.471-2.702-2.823-5.303  c7.697,0,15.277-0.021,22.857,0.016c1.742,0.008,2.545,1.433,3.391,2.656c12.982,18.746,26.739,36.954,39.113,56.282  c2.343-0.962,2.824-3.466,4.157-5.236c12.922-17.159,25.812-34.343,38.655-51.562c1.23-1.649,2.63-2.286,4.645-2.259  c6.315,0.083,12.631,0.03,19.302,0.03c-0.307,2.699-2.152,4.264-3.459,6.023c-15.99,21.521-31.98,43.041-48.134,64.438  c-2.322,3.077-2.771,5.073-0.246,8.511c13.997,19.055,27.734,38.302,41.328,57.646c2.209,3.143,4.516,4.061,8.19,4.059  c174.949-0.086,349.897-0.052,524.845-0.192c4.972-0.005,6.442,1.061,6.259,6.188c-0.426,11.917-0.131,11.928-11.888,11.928  c-173.282,0-346.564,0.004-519.847-0.018c-5.98-0.001-12.914,1.563-17.673-0.92c-4.759-2.484-7.416-9.085-10.868-13.971  c-11.997-16.98-23.939-34-36.192-51.416c-14.624,22.071-30.668,42.795-45.591,64.322  C139.402,255.46,139.769,256.614,138.718,256.777z" />
<path id="m-char" fill-rule="evenodd" clip-rule="evenodd" fill="#1A1A1A" d="M320.771,203.908c4.305-12.592,8.209-24.008,12.111-35.425  c7.411-21.69,14.902-43.354,22.146-65.102c1.139-3.418,2.644-4.748,6.284-4.476c4.64,0.347,9.332,0.232,13.988,0.027  c2.711-0.118,3.323,0.894,3.318,3.436c-0.069,38.66-0.073,77.321,0.005,115.982c0.006,2.75-0.663,3.652-3.575,3.702  c-12.166,0.21-12.164,0.32-12.164-11.96c0-27.828,0-55.658,0-83.486c0-1.579,0-3.157,0-4.736c-0.286-0.051-0.572-0.103-0.858-0.153  c-3.969,11.357-7.968,22.702-11.899,34.072c-7.111,20.564-14.252,41.118-21.192,61.739c-1.118,3.323-2.523,4.653-6.231,4.552  c-10.098-0.276-10.118-0.067-13.401-9.721c-10.056-29.565-20.102-59.133-30.148-88.7c-0.31-0.912-0.279-1.992-1.888-2.892  c0,1.813,0,3.337,0,4.864c0,30.495-0.064,60.991,0.083,91.485c0.018,3.755-0.729,5.074-4.797,4.967  c-10.743-0.281-10.749-0.065-10.749-10.913c0-35.828,0.077-71.656-0.105-107.482c-0.021-4.073,1.2-5.014,4.966-4.776  c4.979,0.314,10.003,0.261,14.989,0.01c3.138-0.157,4.513,0.765,5.552,3.939c8.426,25.727,17.123,51.365,25.708,77.04  C315.442,187.46,317.875,195.05,320.771,203.908z" />
<path id="o-char" fill-rule="evenodd" clip-rule="evenodd" fill="#1A1A1A" d="M486.923,165.477c-2.887-19.342-17.961-33.398-37.082-34.435  c-22.127-1.199-38.339,10.048-43.455,30.173c-1.32,5.198-1.736,10.503-1.436,15.851c0,2.664-0.147,5.337,0.023,7.988  c1.34,20.767,14.012,35.066,34.022,38.479c23.086,3.938,43.322-9.861,47.569-32.685C488.125,182.463,488.19,173.972,486.923,165.477  z M468.08,198.318c-4.63,8.896-12.031,13.626-22.089,13.573c-10.074-0.052-17.834-4.776-21.873-13.87  c-5.784-13.021-5.843-26.567-0.202-39.693c3.957-9.21,11.584-13.987,21.613-14.254c10.063-0.268,17.546,4.419,22.385,13.144  c3.569,6.435,4.371,13.527,4.172,20.771C472.178,185.045,471.389,191.961,468.08,198.318z" />
<path id="b-char" fill-rule="evenodd" clip-rule="evenodd" fill="#1A1A1A" d="M586.101,154.705c-5.979-16.054-18.948-24.512-35.95-23.67  c-8.525,0.423-15.436,4.362-21.986,11.136c0-11.826,0-22.319,0-32.811c0-10.445-0.004-10.241-10.677-10.479  c-3.861-0.086-4.58,1.079-4.566,4.708c0.14,37.976,0.086,75.952,0.086,113.928c0,0.833,0.024,1.666,0.001,2.498  c-0.031,1.126,0.266,1.989,1.594,1.964c3.97-0.075,8.278,0.71,11.778-0.619c1.942-0.737,0.321-5.182,0.726-7.922  c0.036-0.242,0.35-0.443,0.701-0.863c4.331,4.951,9.296,8.896,15.873,10.476c17.301,4.154,35.282-5.337,42.133-22.979  C591.622,185.111,591.732,169.826,586.101,154.705z M571.961,194.738c-3.61,11.053-12.832,17.733-22.943,17.182  c-9.66-0.526-17.653-7.877-20.446-18.899c-1.271-5.019-1.72-10.145-1.638-14.553c-0.076-7.803,0.688-14.689,3.734-21.153  c4.35-9.231,12.585-14.697,21.475-14.275c8.812,0.419,16.696,6.713,19.807,16.43C575.696,171.167,575.781,183.044,571.961,194.738z" />
<path id="i-char" fill-rule="evenodd" clip-rule="evenodd" fill="#1A1A1A" d="M631.315,177.476c0,13.495-0.108,26.993,0.078,40.486  c0.045,3.269-0.846,4.148-4.116,4.13c-11.129-0.063-11.13,0.073-11.13-11.096c0-24.492,0.094-48.985-0.098-73.477  c-0.029-3.811,0.996-4.705,4.7-4.632c10.563,0.209,10.565,0.03,10.565,10.599C631.315,154.815,631.315,166.146,631.315,177.476z M631.318,107.237c0,7.786,0,7.786-7.791,7.786  c-0.334,0-0.676-0.05-0.999,0.008c-5.058,0.888-6.786-0.924-6.521-6.275c0.483-9.762,0.145-9.537,9.986-9.88  c4.328-0.15,6.183,0.907,5.351,5.367C631.164,105.209,631.318,106.238,631.318,107.237z" />
<path id="l-char" fill-rule="evenodd" clip-rule="evenodd" fill="#1A1A1A" d="M676.917,160.856c0,18.663-0.193,37.329,0.137,55.984  c0.082,4.639-1.361,5.394-5.515,5.264c-9.646-0.303-9.652-0.092-9.652-9.981c0-35.992,0.108-71.984-0.133-107.974  c-0.031-4.642,1.373-5.386,5.515-5.257c9.642,0.3,9.648,0.092,9.648,9.977C676.917,126.198,676.917,143.528,676.917,160.856z" />
<path id="e-char" fill-rule="evenodd" clip-rule="evenodd" fill="#1A1A1A" d="M721.059,181.016c9.829-0.007,19.659-0.003,29.487-0.004  c9.829,0,19.66-0.107,29.487,0.066c2.933,0.052,4.125-0.506,3.962-3.769c-0.216-4.33-0.412-8.642-1.125-12.92  c-3.079-18.487-16.809-31.649-34.724-33.285c-20.132-1.837-36.925,8.515-43.006,26.757c-2.877,8.633-3.729,17.595-2.728,26.635  c2.543,22.979,13.789,35.609,34.527,39.042c18.344,3.038,34.969-4.291,42.743-18.842c5.086-9.52,5.05-9.591-5.452-10.863  c-0.165-0.021-0.344-0.004-0.495-0.062c-4.194-1.575-6.313-0.237-8.09,4.089c-3.658,8.907-10.646,13.854-20.507,14.065  c-14.978,0.322-25.817-10.854-27.233-28.58C717.682,180.541,719.459,181.018,721.059,181.016z M718.851,165.822  c1.208-12.91,12.188-22.952,25.216-22.803c12.84,0.146,22.975,10.288,23.78,23.512c0.166,2.728-1.227,2.465-2.94,2.459  c-7.142-0.023-14.282-0.01-21.424-0.01s-14.284-0.085-21.424,0.047C719.612,169.072,718.586,168.667,718.851,165.822z" />
<animate 
           xlink:href="#mobile"
           attributeName="fill"
           from="#F8B219"
           to="deepPink" 
           dur="5s"
           repeatCount="indefinite"
           begin="0s"
           end="move.begin"
           fill="freeze"
           id="changeColor"/>
</svg>